<?xml version="1.0" encoding="UTF-8"?>
<svg id="Warstwa_2" xmlns="http://www.w3.org/2000/svg" viewBox="0 0 48.03 44.71">
  <defs>
    <style>
      .cls-1 {
        fill: none;
        stroke: #004979;
        stroke-linecap: round;
        stroke-linejoin: round;
        stroke-width: 1.98px;
      }
    </style>
  </defs>
  <g id="Warstwa_1-2" data-name="Warstwa_1">
    <g>
      <path class="cls-1" d="M2.44,1.94h8.79c.8,0,1.46.65,1.46,1.45v38.88c0,.8-.65,1.45-1.46,1.45H2.44c-.8,0-1.45-.65-1.45-1.45V3.39c0-.8.65-1.45,1.45-1.45Z"/>
      <path class="cls-1" d="M4.07,6.78h5.53M9.6,10.61h-5.53"/>
      <path class="cls-1" d="M4.07,34.15h5.53M9.6,37.98h-5.53"/>
      <path class="cls-1" d="M14.31,1.94h8.8c.8,0,1.45.65,1.45,1.45v38.88c0,.8-.65,1.45-1.45,1.45h-8.8c-.8,0-1.45-.65-1.45-1.45V3.39c0-.8.65-1.45,1.45-1.45Z"/>
      <path class="cls-1" d="M15.95,6.78h5.52M21.47,10.61h-5.52"/>
      <path class="cls-1" d="M15.95,34.15h5.52M21.47,37.98h-5.52"/>
      <path class="cls-1" d="M26.65,3.31l8.5-2.28c.77-.21,1.57.26,1.78,1.02l10.06,37.56c.2.77-.26,1.57-1.03,1.78l-8.5,2.28c-.77.21-1.57-.26-1.77-1.03L25.63,5.09c-.21-.77.25-1.57,1.02-1.78Z"/>
      <path class="cls-1" d="M29.49,7.57l5.34-1.43M35.82,9.83l-5.34,1.43"/>
      <path class="cls-1" d="M36.57,34.01l5.34-1.43M42.9,36.27l-5.33,1.43"/>
    </g>
  </g>
</svg>