<?xml version="1.0" encoding="UTF-8"?>
<svg id="Warstwa_2" xmlns="http://www.w3.org/2000/svg" viewBox="0 0 64.21 39.9">
  <defs>
    <style>
      .cls-1 {
        fill: none;
        stroke: #004979;
        stroke-linecap: round;
        stroke-linejoin: round;
        stroke-width: 1.83px;
      }
    </style>
  </defs>
  <g id="Warstwa_1-2" data-name="Warstwa_1">
    <g>
      <path class="cls-1" d="M3.17,26.78h57.87c1.25,0,2.26,1.01,2.26,2.26v7.68c0,1.25-1.01,2.26-2.26,2.26H3.17c-1.25,0-2.26-1.01-2.26-2.26v-7.68c0-1.25,1.01-2.26,2.26-2.26Z"/>
      <path class="cls-1" d="M57.22,30.88c.54,0,.98.42.98.94s-.44.94-.98.94-.98-.42-.98-.94.44-.94.98-.94Z"/>
      <path class="cls-1" d="M47.18,30.88c.54,0,.98.42.98.94s-.44.94-.98.94-.98-.42-.98-.94.44-.94.98-.94Z"/>
      <path class="cls-1" d="M37.13,30.88c.54,0,.98.42.98.94s-.44.94-.98.94-.98-.42-.98-.94.44-.94.98-.94Z"/>
      <path class="cls-1" d="M27.08,30.88c.54,0,.98.42.98.94s-.44.94-.98.94-.98-.42-.98-.94.44-.94.98-.94Z"/>
      <path class="cls-1" d="M17.04,30.88c.54,0,.98.42.98.94s-.44.94-.98.94-.98-.42-.98-.94.44-.94.98-.94Z"/>
      <path class="cls-1" d="M6.99,30.88c-.54,0-.98.42-.98.94s.44.94.98.94.98-.42.98-.94-.44-.94-.98-.94Z"/>
      <path class="cls-1" d="M18.8,10.01c-1.37-1.32-3.07-1.28-4.38.09-1.32,1.37-1.28,3.07.09,4.38,1.37,1.32,3.07,1.28,4.38-.09,1.32-1.37,1.28-3.07-.09-4.38ZM15.09,23.58l3.57-.07.26-3.6c.63-.19,1.25-.45,1.83-.8l2.82,2.25,2.47-2.58-2.36-2.73c.32-.59.56-1.22.73-1.86l3.59-.4-.07-3.57-3.6-.26c-.19-.63-.45-1.25-.8-1.83l2.25-2.82-2.58-2.47-2.72,2.36c-.59-.32-1.22-.56-1.86-.73l-.4-3.58-3.57.07-.26,3.6c-.63.19-1.25.45-1.83.8l-2.82-2.25-2.47,2.58,2.36,2.72c-.32.59-.57,1.22-.73,1.86l-3.58.4.07,3.57,3.6.25c.19.63.45,1.25.8,1.83l-2.25,2.82,2.57,2.47,2.73-2.36c.59.32,1.22.56,1.86.73l.4,3.58Z"/>
      <path class="cls-1" d="M47.93,13.88c-2.19-2.1-5.66-2.03-7.76.16-2.1,2.19-2.03,5.66.16,7.76,2.19,2.1,5.66,2.03,7.76-.16,2.1-2.19,2.03-5.66-.16-7.76ZM55.97,26.78l.39-.41-3.08-3.55c.42-.77.74-1.59.95-2.42l4.68-.52-.09-4.66-4.69-.33c-.24-.82-.59-1.63-1.04-2.38l2.94-3.68-3.36-3.23-3.55,3.08c-.77-.42-1.59-.74-2.42-.95l-.52-4.68-4.66.09-.33,4.69c-.83.24-1.63.59-2.38,1.04l-3.67-2.94-3.23,3.36,3.08,3.55c-.42.77-.74,1.59-.95,2.42l-4.67.52.09,4.66,4.69.33c.24.83.59,1.63,1.04,2.38l-2.88,3.6h23.67Z"/>
    </g>
  </g>
</svg>