<?xml version="1.0" encoding="UTF-8"?>
<svg id="Warstwa_2" xmlns="http://www.w3.org/2000/svg" viewBox="0 0 37.94 38.33">
  <defs>
    <style>
      .cls-1 {
        fill: none;
        stroke: #008cd3;
        stroke-linecap: round;
        stroke-linejoin: round;
        stroke-width: 1.55px;
      }
    </style>
  </defs>
  <g id="Warstwa_1-2" data-name="Warstwa_1">
    <g>
      <path class="cls-1" d="M14.59,15.77l-.11,12.85-.09,6.95c-.03,2.63,4.59,2.67,4.58.04M23.51,23.13c.65,1.85,1.61,2.09,2.3,1.66,1.12-.7.73-2.16.69-3.32l-.35-8.75c-.12-2.91-13.84-2.7-14.29-.03-.36,1.65-.41,5.42-.46,8.27-.02,1.39-.49,4.23,1.45,4.01.56-.04,1.17-.54,1.62-1.84M18.99,24.43v11.17c-.01,2.63,4.62,2.59,4.59-.04l-.09-6.95-.11-12.85"/>
      <path class="cls-1" d="M18.89.78c1.86,0,3.37,1.65,3.37,3.68,0,1.37-.69,2.57-1.71,3.2-.5.32-1.08.51-1.71.51-1.86,0-3.37-1.65-3.37-3.68,0-1.37.69-2.57,1.71-3.2.5-.32,1.08-.51,1.71-.51Z"/>
      <path class="cls-1" d="M3.69,18.12l-.1,11.52-.08,6.13c-.02,2.36,3.99,2.39,3.99.04M8.02,13.6c-3.22-.01-6.58.64-6.78,1.86-.33,1.48-.37,3.55-.41,6.1-.02,1.24-.44,3.79,1.29,3.59.5-.04,1.05-.49,1.45-1.65M7.52,26.7v9.11c0,2.36,4.26,2.32,4.24-.04l-.08-6.13-.02-1.07"/>
      <path class="cls-1" d="M7.54,4.59c1.67,0,3.02,1.48,3.02,3.3,0,1.23-.62,2.3-1.53,2.87-.45.29-.97.45-1.53.45-1.67,0-3.02-1.48-3.02-3.3,0-1.23.62-2.3,1.53-2.87.45-.29.97-.46,1.53-.46Z"/>
      <path class="cls-1" d="M26.34,28.78l-.04.85-.08,6.13c-.02,2.36,3.99,2.39,3.99.04M34.39,23.23c.58,1.66,1.45,1.87,2.06,1.49,1.01-.63.67-1.94.62-2.98l-.31-6.26c-.07-1.45-3.9-2.04-7.36-1.86M30.22,26.7v9.11c0,2.36,4.26,2.32,4.24-.04l-.08-6.13-.1-11.52"/>
      <path class="cls-1" d="M30.25,4.59c1.67,0,3.02,1.48,3.02,3.3,0,1.23-.62,2.3-1.53,2.87-.45.29-.97.45-1.53.45-1.67,0-3.02-1.48-3.02-3.3,0-1.23.62-2.3,1.53-2.87.45-.29.97-.46,1.53-.46Z"/>
    </g>
  </g>
</svg>