<?xml version="1.0" encoding="UTF-8"?>
<svg id="Warstwa_2" xmlns="http://www.w3.org/2000/svg" viewBox="0 0 50.45 49.88">
  <defs>
    <style>
      .cls-1 {
        fill: none;
        stroke: #004979;
        stroke-linecap: round;
        stroke-linejoin: round;
        stroke-width: 1.98px;
      }
    </style>
  </defs>
  <g id="Warstwa_1-2" data-name="Warstwa_1">
    <g>
      <path class="cls-1" d="M45.01,4.93c0,2.73-1.89,4.64-4.23,4.64s-4.22-1.9-4.22-4.64c0-5.34,8.45-5.17,8.45,0Z"/>
      <path class="cls-1" d="M49.46,21.53h-17.36v-4.84c0-2.34,1.92-4.27,4.27-4.27h8.82c2.35,0,4.27,1.92,4.27,4.27v4.84Z"/>
      <path class="cls-1" d="M36.41,16.42v5.11M45.16,21.53v-5.11"/>
      <path class="cls-1" d="M13.89,4.93c0,2.73-1.89,4.64-4.23,4.64s-4.22-1.9-4.22-4.64C5.45-.41,13.89-.24,13.89,4.93Z"/>
      <path class="cls-1" d="M18.35,21.53H.99v-4.84c0-2.34,1.92-4.27,4.27-4.27h8.82c2.35,0,4.27,1.92,4.27,4.27v4.84Z"/>
      <path class="cls-1" d="M5.3,16.42v5.11M14.04,21.53v-5.11"/>
      <path class="cls-1" d="M29.42,32.29c0,2.73-1.89,4.64-4.22,4.64s-4.23-1.9-4.23-4.64c0-5.34,8.45-5.17,8.45,0Z"/>
      <path class="cls-1" d="M33.87,48.89h-17.36v-4.84c0-2.34,1.92-4.27,4.27-4.27h8.82c2.34,0,4.27,1.92,4.27,4.27v4.84Z"/>
      <path class="cls-1" d="M20.82,43.79v5.11M29.57,48.89v-5.11"/>
      <path class="cls-1" d="M29.63,5.94c-1.43-.38-2.93-.59-4.48-.59-1.83,0-3.6.29-5.25.81"/>
      <polyline class="cls-1" points="26.6 2.23 30.41 5.94 25.78 8.56"/>
      <path class="cls-1" d="M37.52,34.92c1.04-1.05,1.97-2.25,2.75-3.59.92-1.59,1.55-3.26,1.92-4.96"/>
      <polyline class="cls-1" points="42.25 34.15 37.14 35.59 37.17 30.27"/>
      <path class="cls-1" d="M8.48,27.26c.38,1.43.96,2.83,1.73,4.17.91,1.59,2.04,2.97,3.33,4.14"/>
      <polyline class="cls-1" points="6.78 31.74 8.09 26.59 12.68 29.28"/>
    </g>
  </g>
</svg>