<?xml version="1.0" encoding="UTF-8"?>
<svg id="Warstwa_2" xmlns="http://www.w3.org/2000/svg" viewBox="0 0 39.51 38.03">
  <defs>
    <style>
      .cls-1 {
        stroke-miterlimit: 22.93;
      }

      .cls-1, .cls-2 {
        fill: none;
        stroke: #008cd3;
        stroke-width: 1.55px;
      }

      .cls-2 {
        stroke-linecap: round;
        stroke-linejoin: round;
      }
    </style>
  </defs>
  <g id="Warstwa_1-2" data-name="Warstwa_1">
    <g>
      <path class="cls-2" d="M3.66,37.26V12.49M35.84,12.49v24.76"/>
      <polygon class="cls-2" points="7.95 .78 31.55 .78 38.73 12.27 25.84 12.27 19.75 6.49 13.66 12.27 .78 12.27 7.95 .78"/>
      <path class="cls-2" d="M15.57,37.25v-9.06c0-2.19,1.88-3.98,4.18-3.98s4.18,1.79,4.18,3.98v9.06"/>
      <rect class="cls-2" x="7.87" y="17.07" width="3.44" height="4.87"/>
      <rect class="cls-2" x="7.87" y="26.54" width="3.44" height="6.13"/>
      <rect class="cls-2" x="28.19" y="26.54" width="3.44" height="6.13"/>
      <rect class="cls-2" x="28.19" y="17.07" width="3.44" height="4.87"/>
      <path class="cls-1" d="M19.75,12.91c1.47,0,2.66,1.19,2.66,2.67s-1.19,2.67-2.66,2.67-2.67-1.19-2.67-2.67,1.19-2.67,2.67-2.67Z"/>
      <line class="cls-2" x1="1.47" y1="37.25" x2="38.04" y2="37.25"/>
    </g>
  </g>
</svg>