<?xml version="1.0" encoding="UTF-8"?>
<svg id="Warstwa_2" xmlns="http://www.w3.org/2000/svg" viewBox="0 0 49.23 49.36">
  <defs>
    <style>
      .cls-1 {
        stroke-width: 1.98px;
      }

      .cls-1, .cls-2 {
        fill: none;
        stroke: #004979;
        stroke-linecap: round;
        stroke-linejoin: round;
      }

      .cls-2 {
        stroke-width: 1.8px;
      }
    </style>
  </defs>
  <g id="Warstwa_1-2" data-name="Warstwa_1">
    <g>
      <path class="cls-1" d="M26.16,23.29h0c1.21-.5,2.53.04,3.05,1.16l2.62,5.69c.24-.56.7-1.03,1.32-1.29h0c1.1-.46,2.34-.06,2.9.87.18-.68.69-1.29,1.42-1.59,1.1-.45,2.33-.06,2.9.87.18-.68.69-1.29,1.42-1.59,1.21-.5,2.64,0,3.05,1.16l2.98,8.53c2.42,6.93-6.23,14.25-12.7,10.06l-11.24-7.27c-1.05-.68-1.29-2.08-.54-3.12,1.2-.49,3.56-.47,4.62.22l2.13,1.38-5.27-12.09c-.49-1.13.13-2.47,1.34-2.97Z"/>
      <polyline class="cls-1" points="6.94 17.75 8.64 19.98 12.13 15.47"/>
      <line class="cls-2" x1="16" y1="18.18" x2="27.19" y2="18.18"/>
      <polyline class="cls-1" points="6.94 24.87 8.64 27.1 12.13 22.59"/>
      <line class="cls-2" x1="16" y1="25.3" x2="24.66" y2="25.3"/>
      <polyline class="cls-1" points="6.89 31.94 8.59 34.17 12.08 29.66"/>
      <line class="cls-2" x1="15.95" y1="32.37" x2="27.14" y2="32.37"/>
      <line class="cls-2" x1="6.26" y1="8.54" x2="17.45" y2="8.54"/>
      <path class="cls-1" d="M33.14,11.84h-9.18c-.92,0-1.66-.75-1.66-1.67V.99l10.85,10.85ZM33.14,28.03V11.84M22.29.99H2.65c-.91,0-1.67.75-1.67,1.67v40.43c0,.91.75,1.66,1.67,1.66h28.82"/>
    </g>
  </g>
</svg>