<?xml version="1.0" encoding="UTF-8"?>
<svg id="Warstwa_2" xmlns="http://www.w3.org/2000/svg" viewBox="0 0 53.5 53.55">
  <defs>
    <style>
      .cls-1 {
        fill: none;
        stroke: #004979;
        stroke-linecap: round;
        stroke-linejoin: round;
        stroke-width: 1.98px;
      }
    </style>
  </defs>
  <g id="Warstwa_1-2" data-name="Warstwa_1">
    <g>
      <path class="cls-1" d="M12.62,38.95v11.27c0,3.43-5.6,2.79-5.6,0l.26-20.58-2.14,6.47c-1.5,3.93-4.74,1.37-4.06-.42l2.86-9.37c1.04-3.97,4.94-1.84,6.8-1.75.68.16,1.3.21,2.02.21,4.85.02,4.94-2.36,10.39-5.42,2.92-1.64,5.37,2.22,2.14,4.15l-7.34,5.72.3,20.98c.04,3.43-5.6,2.8-5.6,0"/>
      <path class="cls-1" d="M12.82,11.59c2.73,0,4.94,2.21,4.94,4.94s-2.21,4.94-4.94,4.94-4.94-2.21-4.94-4.94,2.21-4.94,4.94-4.94Z"/>
      <polyline class="cls-1" points="21.65 33.6 29.92 26.94 35.47 28.67 44.06 14.25 38.68 15.53"/>
      <line class="cls-1" x1="44.47" y1="14.26" x2="45.3" y2="19.88"/>
      <polyline class="cls-1" points="10.76 8.43 10.76 4.76 52.51 4.76 52.51 38.06 21.68 38.06"/>
      <line class="cls-1" x1="31.63" y1="38.16" x2="31.63" y2="49.55"/>
      <line class="cls-1" x1="31.63" y1="4.62" x2="31.63" y2=".99"/>
      <line class="cls-1" x1="31.7" y1="44.04" x2="41.07" y2="52.56"/>
      <line class="cls-1" x1="31.57" y1="44.04" x2="22.19" y2="52.56"/>
    </g>
  </g>
</svg>