<?xml version="1.0" encoding="UTF-8"?>
<svg id="Warstwa_2" xmlns="http://www.w3.org/2000/svg" viewBox="0 0 50.36 47.22">
  <defs>
    <style>
      .cls-1 {
        fill: none;
        stroke: #004979;
        stroke-linecap: round;
        stroke-linejoin: round;
        stroke-width: 1.98px;
      }
    </style>
  </defs>
  <g id="Warstwa_1-2" data-name="Warstwa_1">
    <g>
      <line class="cls-1" x1="48.4" y1="44.74" x2="1.96" y2="44.74"/>
      <path class="cls-1" d="M11.81,42.92c.92,0,1.66.74,1.66,1.66s-.74,1.66-1.66,1.66-1.66-.74-1.66-1.66.74-1.66,1.66-1.66Z"/>
      <path class="cls-1" d="M35.55,4.37h11.11c1.49,0,2.71,1.22,2.71,2.71v28.45c0,1.49-1.22,2.71-2.71,2.71H3.7c-1.49,0-2.71-1.22-2.71-2.71V7.08c0-1.49,1.22-2.71,2.71-2.71h10.97"/>
      <path class="cls-1" d="M30.71,21.58l.1.02c1.6,1.15,6.53,2.26,7.85,2.54,1.44.3,3.17,1.33,3.17,3.11v.8l-.8,9.23M22.55,37.3l1.73-10.92-1.47-3.94h4.74l-1.47,3.94,1.68,10.92M9.35,37.27l-.8-9.23v-.8c0-1.78,1.73-2.81,3.17-3.11,1.32-.28,6.25-1.39,7.85-2.54l.1-.02M30.76,13.63c-.89,3.21-3.3,5.54-5.6,5.66-2.3-.12-4.73-2.47-5.61-5.68l-.43.07c-.49.08-.95-.27-1.03-.78l-.43-2.85c-.08-.51.26-.99.75-1.07l.31-.05c-.14-.45-.21-.92-.21-1.41v-1.05c0-2.57,2.02-4.67,4.48-4.67h.53c0-.09,0-.17.03-.25.27-.76,2.11-.73,4.1.05.42.17.82.36,1.18.55,1.62.71,2.76,2.37,2.76,4.31v1.05c0,.49-.07.97-.21,1.41l.31.05c.49.08.83.56.75,1.07l-.43,2.85c-.08.51-.54.86-1.03.78l-.25-.04Z"/>
      <line class="cls-1" x1="22.81" y1="9.83" x2="22.81" y2="10.56"/>
      <line class="cls-1" x1="27.55" y1="9.83" x2="27.55" y2="10.56"/>
      <path class="cls-1" d="M26.46,14.68c-.77.61-1.94.61-2.57,0"/>
      <path class="cls-1" d="M31.85,8.95c-.18-.98-1.69-3.57-3.66-3.99-3.3,3.91-8.55-1.33-9.69,3.57"/>
    </g>
  </g>
</svg>