<?xml version="1.0" encoding="UTF-8"?>
<svg id="Warstwa_2" data-name="Warstwa 2" xmlns="http://www.w3.org/2000/svg" viewBox="0 0 311.59 92.86">
  <defs>
    <style>
      .cls-1 {
        fill: #23527e;
      }
    </style>
  </defs>
  <g id="Warstwa_2-2" data-name="Warstwa 2">
    <g>
      <path class="cls-1" d="M72.1,6.06c-4.36-1.69-8.88-3.04-13.45-4.04-6.19-1.34-12.57-2.02-18.94-2.02h-.98c-6.36,0-12.73.68-18.93,2.02-4.57.98-9.09,2.34-13.45,4.04L0,8.52v37.05c0,6.48,1.85,12.79,5.38,18.23,3.95,6.13,8.72,11.64,14.17,16.38,4.59,4,9.67,7.46,15.08,10.28l4.6,2.39,4.6-2.39c5.42-2.82,10.49-6.28,15.08-10.28,5.45-4.75,10.21-10.27,14.17-16.38,3.51-5.45,5.38-11.75,5.38-18.23V8.52l-6.34-2.46h0ZM72.04,45.57c0,5.25-1.51,10.35-4.35,14.75-3.63,5.62-8,10.68-13,15.04-4.2,3.66-8.86,6.84-13.83,9.43l-1.64.86-1.63-.86c-4.97-2.6-9.63-5.77-13.84-9.43-4.99-4.35-9.36-9.41-12.99-15.04-2.85-4.4-4.35-9.5-4.35-14.75V12.91l2.26-.88c4.05-1.57,8.25-2.83,12.48-3.74,5.75-1.25,11.67-1.88,17.58-1.88h1c5.91,0,11.83.63,17.57,1.88,4.23.91,8.43,2.17,12.48,3.74l2.26.88v32.66h0Z"/>
      <path class="cls-1" d="M30.91,64.17v12.35c-1.58-1.14-3.2-2.42-4.83-3.84-5.47-4.77-9.46-9.82-12.35-14.29-2.47-3.82-3.79-8.28-3.79-12.83v-16.07l9.56,3.86v12.2c0,2.72.78,5.37,2.26,7.65,2.61,4.04,5.68,7.71,9.15,10.96h0Z"/>
      <path class="cls-1" d="M68.5,15.32v19.9l-9.56-3.86v-9.18c-1.46-.42-2.93-.79-4.41-1.11-2.31-.5-4.64-.88-7-1.14-1.17-.13-2.35-.23-3.54-.3v59.27c-1.67,1.05-3.29,1.96-4.78,2.74-1.5-.78-3.1-1.69-4.78-2.74V10.06c1.51-.08,2.94-.11,4.28-.11h1c1.34,0,2.77.03,4.28.11,1.14.06,2.32.15,3.54.26,2.81.27,5.83.73,9.02,1.41,4.56.98,8.56,2.27,11.95,3.59h0Z"/>
      <path class="cls-1" d="M30.72,19.96c-2.26.26-4.5.63-6.71,1.1l6.9,2.79v10.31l-11.4-4.61-9.56-3.86v-10.36c1.54-.6,3.2-1.19,4.98-1.74,2.15-.67,4.47-1.3,6.97-1.84,3.18-.69,6.2-1.14,9.02-1.41v9.62c-.06,0-.12.02-.19.02h0Z"/>
      <path class="cls-1" d="M68.5,39.04v6.53c0,1.23-.1,2.46-.29,3.66h0c-.18,1.18-.46,2.35-.82,3.48-.63,2-1.53,3.91-2.68,5.69-2.88,4.47-6.87,9.52-12.35,14.29-1.63,1.42-3.25,2.7-4.83,3.84v-12.35c3.47-3.24,6.54-6.92,9.15-10.96.82-1.27,1.42-2.65,1.8-4.1.3-1.15.45-2.34.45-3.55v-.08l-11.4-4.61v-10.31l11.4,4.61,9.56,3.86h0Z"/>
    </g>
    <g>
      <path class="cls-1" d="M124.91,37.14v3.43h-8.31c-.53,0-.79.26-.79.79v2.04c0,.53.26.79.79.79h5.14c2.84,0,4.26,1.42,4.26,4.26v3.08c0,2.81-1.42,4.2-4.26,4.2h-8.71v-3.43h8.71c.54,0,.81-.26.81-.76v-3.08c0-.54-.27-.81-.81-.81h-5.14c-2.82,0-4.22-1.41-4.22-4.22v-2.04c0-2.82,1.41-4.22,4.22-4.22h8.3v-.02Z"/>
      <path class="cls-1" d="M134.84,48.26h3.03l-2.09-5.43-5.05,12.89h-3.75l7.41-18.59h2.77l7.43,18.59h-3.77l-1.6-4.02h-5.75l1.35-3.43h.01Z"/>
      <path class="cls-1" d="M149.91,48.11v7.61h-3.43v-18.59h11.51v3.43h-8.07v4.11h7.86v3.43h-7.87Z"/>
      <path class="cls-1" d="M160.27,37.14h11.38v3.43h-7.95v3.62h7.74v3.43h-7.74v4.66h8.07v3.43h-11.51v-18.59h.01Z"/>
      <path class="cls-1" d="M173.24,37.14h13.4v3.43h-4.92v15.15h-3.43v-15.15h-5.04v-3.43h-.01Z"/>
      <path class="cls-1" d="M193.35,47.07l-6.52-9.93h3.92l4.32,6.67,4.34-6.67h3.9l-6.52,9.93v8.65h-3.43v-8.65h-.01Z"/>
      <path class="cls-1" d="M211.05,37.14h8.99c2.84,0,4.26,1.41,4.26,4.22v2.47c0,2.85-1.42,4.28-4.26,4.28h-4.38v-3.43h4.38c.54,0,.81-.28.81-.84v-2.47c0-.53-.27-.79-.81-.79h-5.56v15.15h-3.43s0-18.59,0-18.59Z"/>
      <path class="cls-1" d="M230.41,55.72h-3.43v-18.59h8.3c2.84,0,4.26,1.41,4.26,4.22v2.04c0,2.82-1.35,4.22-4.06,4.22l5.23,8.1h-4.18l-4.93-8.03v-3.51h3.67c.55,0,.82-.26.82-.79v-2.04c0-.53-.28-.79-.84-.79h-4.84v15.15h.01Z"/>
      <path class="cls-1" d="M253.24,37.14c2.84,0,4.26,1.41,4.26,4.22v10.16c0,2.81-1.42,4.2-4.26,4.2h-6.07c-2.84,0-4.26-1.42-4.26-4.26v-10.11c0-2.82,1.42-4.22,4.26-4.22h6.07ZM247.18,40.57c-.54,0-.81.26-.81.79v10.11c0,.54.27.81.81.81h6.07c.54,0,.81-.26.81-.76v-10.16c0-.53-.27-.79-.81-.79h-6.07Z"/>
      <path class="cls-1" d="M258.97,55.72v-3.43h4.26c.54,0,.81-.26.81-.76v-14.38h3.43v14.38c0,2.81-1.42,4.2-4.26,4.2h-4.26.01Z"/>
      <path class="cls-1" d="M270.71,37.14h11.38v3.43h-7.95v3.62h7.74v3.43h-7.74v4.66h8.07v3.43h-11.51v-18.59h.01Z"/>
      <path class="cls-1" d="M296.7,52.29v3.43h-7.59c-2.84,0-4.26-1.42-4.26-4.26v-10.11c0-2.82,1.42-4.22,4.26-4.22h7.59v3.43h-7.59c-.54,0-.81.26-.81.79v10.11c0,.54.27.81.81.81h7.59Z"/>
      <path class="cls-1" d="M298.19,37.14h13.4v3.43h-4.92v15.15h-3.43v-15.15h-5.04v-3.43h-.01Z"/>
    </g>
  </g>
</svg>