<?xml version="1.0" encoding="UTF-8"?>
<svg id="Warstwa_2" xmlns="http://www.w3.org/2000/svg" viewBox="0 0 45.21 38">
  <defs>
    <style>
      .cls-1 {
        fill: none;
        stroke: #008cd3;
        stroke-linecap: round;
        stroke-linejoin: round;
        stroke-width: 1.55px;
      }
    </style>
  </defs>
  <g id="Warstwa_1-2" data-name="Warstwa_1">
    <g>
      <polygon class="cls-1" points="32.21 9.82 27.51 5.11 24.41 8.21 29.19 12.84 32.21 9.82"/>
      <path class="cls-1" d="M16.17,6.43C7.67,6.43.78,13.32.78,21.83s6.89,15.39,15.4,15.39,15.39-6.89,15.39-15.39-6.89-15.4-15.39-15.4Z"/>
      <path class="cls-1" d="M16.66,9.79c-6.9,0-12.49,5.59-12.49,12.49"/>
      <path class="cls-1" d="M30.3,6.8l4.87-4.59c4.55-4.29,10.65,1.97,6.24,6.79-4.41,4.83-5.75,6.04-5.99,6.33-1.52,1.82-1.43,4.55.28,6.26,1.09,1.08,2.58,1.52,4,1.3"/>
      <line class="cls-1" x1="37.55" y1="18.17" x2="38.45" y2="20.47"/>
      <line class="cls-1" x1="42.63" y1="19.02" x2="41.09" y2="20.95"/>
      <line class="cls-1" x1="44.44" y1="23.84" x2="41.99" y2="23.47"/>
      <line class="cls-1" x1="41.16" y1="27.82" x2="40.26" y2="25.51"/>
      <line class="cls-1" x1="36.08" y1="26.97" x2="37.63" y2="25.04"/>
    </g>
  </g>
</svg>