<?xml version="1.0" encoding="UTF-8"?>
<svg id="Warstwa_2" xmlns="http://www.w3.org/2000/svg" viewBox="0 0 57.32 49.55">
  <defs>
    <style>
      .cls-1 {
        fill: none;
        stroke: #004979;
        stroke-linecap: round;
        stroke-linejoin: round;
        stroke-width: 1.98px;
      }
    </style>
  </defs>
  <g id="Warstwa_1-2" data-name="Warstwa_1">
    <g>
      <path class="cls-1" d="M24.53,24.25c2.37,0,4.28,2.1,4.28,4.68,0,1.75-.88,3.27-2.17,4.08-.64.41-1.38.65-2.17.65-2.37,0-4.28-2.1-4.28-4.68,0-1.75.88-3.27,2.17-4.08.64-.41,1.38-.65,2.17-.65Z"/>
      <path class="cls-1" d="M11,.99h42.97c1.3,0,2.36,1.06,2.36,2.36v9.6c0,1.3-1.06,2.36-2.36,2.36h-7.15l-.03,5.18-5.06-5.18h-6.71l-2.54,5.18-2.54-5.18h-6.71l-5.05,5.18-.03-5.18h-7.15c-1.3,0-2.36-1.06-2.36-2.36V3.35c0-1.3,1.06-2.36,2.36-2.36Z"/>
      <path class="cls-1" d="M10.63,24.25c2.37,0,4.28,2.1,4.28,4.68,0,1.75-.88,3.27-2.17,4.08-.64.41-1.38.65-2.17.65-2.37,0-4.29-2.1-4.29-4.68,0-1.75.88-3.27,2.17-4.08.64-.41,1.38-.65,2.17-.65Z"/>
      <path class="cls-1" d="M19.07,43.32l-.04,5.24M34.13,48.56l-.36-9.11c-.15-3.71-17.62-3.43-18.18-.04-.41,1.85-.51,5.77-.56,9.15M30.3,48.56l-.04-5.24"/>
      <path class="cls-1" d="M5.03,43.32l-.04,5.24M17.03,37.43c-4.96-1.37-15.05-.59-15.48,1.98-.41,1.85-.51,5.77-.56,9.15"/>
      <path class="cls-1" d="M44.54,43.32l.04,5.24M32.54,37.43c4.96-1.37,15.05-.59,15.48,1.98.41,1.85.5,5.77.56,9.15"/>
      <path class="cls-1" d="M38.94,24.25c-2.37,0-4.29,2.1-4.29,4.68,0,1.75.88,3.27,2.17,4.08.64.41,1.38.65,2.17.65,2.37,0,4.29-2.1,4.29-4.68,0-1.75-.88-3.27-2.17-4.08-.64-.41-1.38-.65-2.17-.65Z"/>
      <line class="cls-1" x1=".99" y1="48.56" x2="48.58" y2="48.56"/>
      <path class="cls-1" d="M28.81,9.05c-.03.15-.05.31-.06.49"/>
      <path class="cls-1" d="M24.67,9.05c-.03.15-.05.31-.06.49"/>
      <path class="cls-1" d="M20.52,9.05c-.03.15-.05.31-.06.49"/>
    </g>
  </g>
</svg>