<?xml version="1.0" encoding="UTF-8"?>
<svg id="Warstwa_2" xmlns="http://www.w3.org/2000/svg" viewBox="0 0 45.66 50.64">
  <defs>
    <style>
      .cls-1 {
        stroke-width: 1.98px;
      }

      .cls-1, .cls-2 {
        fill: none;
        stroke: #004979;
        stroke-linecap: round;
        stroke-linejoin: round;
      }

      .cls-2 {
        stroke-width: 1.97px;
      }
    </style>
  </defs>
  <g id="Warstwa_1-2" data-name="Warstwa_1">
    <g>
      <line class="cls-1" x1="21.59" y1="9.08" x2="21.59" y2="5.55"/>
      <path class="cls-1" d="M21.59.99c1.26,0,2.28,1.02,2.28,2.28s-1.02,2.28-2.28,2.28-2.28-1.02-2.28-2.28,1.02-2.28,2.28-2.28Z"/>
      <line class="cls-1" x1="31.82" y1="3.27" x2="24.19" y2="3.27"/>
      <line class="cls-1" x1="18.99" y1="3.27" x2="11.36" y2="3.27"/>
      <path class="cls-2" d="M39.59,38.23c-1.85,5.15-3.7,7.07-3.7,8.61s1.56,2.8,3.48,2.8,3.48-1.26,3.48-2.8-3.5-3.76-3.27-8.61Z"/>
      <path class="cls-1" d="M34.51,35.44h10.16M23.29,9.08h.62c.62,0,1.13.51,1.13,1.13v2.16M18.28,12.37v-2.16c0-.62.51-1.13,1.13-1.13h3.88M36.36,34.12c.06-1.49.01-3.48-.24-4.4-.47-1.73-1.66-2.5-4.18-2.55-3.08-.06-3.85,3.64-10.28,3.64s-7.11-3.54-10.22-3.54H2.25M26.71,14.68v5.03c.18.52.6.93,1.14,1.08,8.85,0,13.18.71,14.53,7.87.25,1.32.4,3.66.45,5.46M14.69,13.5h13.94M2.25,20.79h13.22c.54-.15.97-.56,1.14-1.08v-5.03M.99,19.72v8.81"/>
    </g>
  </g>
</svg>