<?xml version="1.0" encoding="UTF-8"?>
<svg id="Warstwa_2" xmlns="http://www.w3.org/2000/svg" viewBox="0 0 38.64 35.14">
  <defs>
    <style>
      .cls-1 {
        stroke-miterlimit: 22.93;
      }

      .cls-1, .cls-2 {
        fill: none;
        stroke: #008cd3;
        stroke-width: 1.55px;
      }

      .cls-2 {
        stroke-linecap: round;
        stroke-linejoin: round;
      }
    </style>
  </defs>
  <g id="Warstwa_1-2" data-name="Warstwa_1">
    <g>
      <path class="cls-2" d="M33.21,20.27l2.37-2.37c4.09-4.08,2.07-9.59-1.22-13.13-1.09-1.17-2.32-2.18-3.61-2.9-1.67-.94-6.91-2.31-10.35,1.03l-7.12,7.08c-1.92,1.91,2.93,3.76,5.38,1.34l1.79-1.77c2.65-2.4,5.98,2.41,10.12-.86"/>
      <path class="cls-2" d="M24.25,11.27l9.16,9.6c1.87,1.96-.9,5.69-3.3,3.22l-4.3-4.43M5.52,19.15l-2.37-2.36C-4.74,8.91,8.92-4.62,16.93,3.17l1.6,1.59"/>
      <path class="cls-2" d="M22.06,22.65l4.72,4.85c1.89,1.94,5.71-.93,3.32-3.41l-4.62-4.76"/>
      <path class="cls-2" d="M20.63,28.01l2.36,2.38c1.91,1.92,5.61-.82,3.23-3.32"/>
      <path class="cls-1" d="M11.13,17.2l.25.25c.85.85.85,2.25,0,3.1l-3.26,3.26c-.85.85-2.25.85-3.1,0l-.25-.25c-.85-.85-.85-2.25,0-3.1l3.26-3.27c.85-.85,2.25-.85,3.1,0Z"/>
      <path class="cls-1" d="M16.62,18.69l.25.25c.85.85.85,2.25,0,3.1l-5.2,5.2c-.85.85-2.25.85-3.1,0l-.25-.25c-.85-.85-.85-2.25,0-3.1l5.2-5.2c.85-.85,2.25-.85,3.1,0Z"/>
      <path class="cls-1" d="M18.75,23.55l.25.25c.85.85.85,2.25,0,3.1l-3.57,3.56c-.85.85-2.25.85-3.1,0l-.25-.25c-.85-.85-.85-2.25,0-3.1l3.56-3.56c.85-.85,2.25-.85,3.1,0Z"/>
      <path class="cls-1" d="M21.04,28.18l.25.25c.85.85.85,2.25,0,3.1l-2.19,2.19c-.85.85-2.25.85-3.1,0l-.25-.25c-.85-.85-.85-2.25,0-3.1l2.19-2.19c.85-.85,2.25-.85,3.1,0Z"/>
    </g>
  </g>
</svg>