<?xml version="1.0" encoding="UTF-8"?>
<svg id="Warstwa_2" xmlns="http://www.w3.org/2000/svg" viewBox="0 0 53.1 51.76">
  <defs>
    <style>
      .cls-1 {
        fill: none;
        stroke: #004979;
        stroke-linecap: round;
        stroke-linejoin: round;
        stroke-width: 1.98px;
      }
    </style>
  </defs>
  <g id="Warstwa_1-2" data-name="Warstwa_1">
    <g>
      <polygon class="cls-1" points="50.93 15.93 26.61 5.18 2.29 15.93 50.93 15.93"/>
      <line class="cls-1" x1="6.35" y1="42.88" x2="46.88" y2="42.88"/>
      <line class="cls-1" x1="4.01" y1="46.82" x2="49.21" y2="46.82"/>
      <line class="cls-1" x1="1.42" y1="50.77" x2="51.81" y2="50.77"/>
      <line class="cls-1" x1="9.33" y1="24.6" x2="8.52" y2="42.88"/>
      <path class="cls-1" d="M14.53,24.6c0,6.09.8,12.19.8,18.28"/>
      <path class="cls-1" d="M9.77,22.8c0,1.14-.81,2.06-1.8,2.06s-1.8-.92-1.8-2.06c0-2.83,1.78-3.12,3.49-3.12h4.63c1.71,0,3.49.29,3.49,3.12,0,1.14-.8,2.06-1.8,2.06s-1.8-.92-1.8-2.06"/>
      <line class="cls-1" x1="23.46" y1="24.6" x2="22.65" y2="42.88"/>
      <path class="cls-1" d="M28.66,24.6c0,6.09.8,12.19.8,18.28"/>
      <path class="cls-1" d="M23.9,22.8c0,1.14-.81,2.06-1.8,2.06s-1.8-.92-1.8-2.06c0-2.83,1.78-3.12,3.49-3.12h4.63c1.71,0,3.49.29,3.49,3.12,0,1.14-.81,2.06-1.8,2.06s-1.8-.92-1.8-2.06"/>
      <line class="cls-1" x1="37.58" y1="24.6" x2="36.78" y2="42.88"/>
      <path class="cls-1" d="M42.79,24.6c0,6.09.8,12.19.8,18.28"/>
      <path class="cls-1" d="M38.03,22.8c0,1.14-.81,2.06-1.8,2.06s-1.8-.92-1.8-2.06c0-2.83,1.78-3.12,3.49-3.12h4.63c1.71,0,3.49.29,3.49,3.12,0,1.14-.81,2.06-1.8,2.06s-1.8-.92-1.8-2.06"/>
      <line class="cls-1" x1="2.13" y1="19.68" x2="51.1" y2="19.68"/>
      <polyline class="cls-1" points="52.11 12.29 26.55 .99 .99 12.29"/>
    </g>
  </g>
</svg>