<?xml version="1.0" encoding="UTF-8"?>
<svg id="Warstwa_2" xmlns="http://www.w3.org/2000/svg" viewBox="0 0 40.77 40.77">
  <defs>
    <style>
      .cls-1 {
        fill: none;
        stroke: #008cd3;
        stroke-linecap: round;
        stroke-linejoin: round;
        stroke-width: 1.55px;
      }
    </style>
  </defs>
  <g id="Warstwa_1-2" data-name="Warstwa_1">
    <g>
      <polyline class="cls-1" points="20.46 39.99 .78 39.99 .78 9.86 10.62 .78 20.46 9.86"/>
      <polygon class="cls-1" points="20.31 9.86 30.15 .78 40 9.86 40 39.99 20.31 39.99 20.31 9.86"/>
      <rect class="cls-1" x="12.32" y="13.13" width="4.11" height="4.9"/>
      <rect class="cls-1" x="4.81" y="13.13" width="4.11" height="4.9"/>
      <rect class="cls-1" x="12.32" y="22.36" width="4.11" height="4.9"/>
      <rect class="cls-1" x="4.81" y="22.36" width="4.11" height="4.9"/>
      <rect class="cls-1" x="12.32" y="31.6" width="4.11" height="4.9"/>
      <polyline class="cls-1" points="8.92 39.59 8.92 31.6 4.81 31.6 4.81 39.59"/>
      <rect class="cls-1" x="31.85" y="13.13" width="4.11" height="4.9"/>
      <rect class="cls-1" x="24.34" y="13.13" width="4.11" height="4.9"/>
      <rect class="cls-1" x="31.85" y="22.36" width="4.11" height="4.9"/>
      <rect class="cls-1" x="24.34" y="22.36" width="4.11" height="4.9"/>
      <polyline class="cls-1" points="35.96 39.59 35.96 31.6 31.85 31.6 31.85 39.59"/>
      <rect class="cls-1" x="24.34" y="31.6" width="4.11" height="4.9"/>
      <polyline class="cls-1" points="5.64 8.97 10.62 4.37 15.6 8.97"/>
      <polyline class="cls-1" points="25.17 8.97 30.15 4.37 35.13 8.97"/>
    </g>
  </g>
</svg>