<?xml version="1.0" encoding="UTF-8"?>
<svg id="Warstwa_2" xmlns="http://www.w3.org/2000/svg" viewBox="0 0 51.38 51.38">
  <defs>
    <style>
      .cls-1 {
        fill: none;
        stroke: #004979;
        stroke-linecap: round;
        stroke-linejoin: round;
        stroke-width: 1.98px;
      }
    </style>
  </defs>
  <g id="Warstwa_1-2" data-name="Warstwa_1">
    <g>
      <circle class="cls-1" cx="25.69" cy="25.69" r="24.7"/>
      <line class="cls-1" x1="25.69" y1=".99" x2="25.69" y2="9.35"/>
      <line class="cls-1" x1=".99" y1="25.69" x2="9.35" y2="25.69"/>
      <line class="cls-1" x1="25.69" y1="50.39" x2="25.69" y2="42.03"/>
      <line class="cls-1" x1="50.39" y1="25.69" x2="42.03" y2="25.69"/>
      <path class="cls-1" d="M38.23,41.99c.16-1.44.33-5.08-1.78-6.97-1.94-1.74-4.54-1.67-6.24-3.18-1.73-1.53-2.01-3.4-.66-5.54,1.08-1.71,1.92-4.18,1.92-6.29,0-3.54-2.47-6.42-5.78-6.42s-5.78,2.88-5.78,6.42c0,2.11.84,4.59,1.92,6.29,1.36,2.14,1.08,4.02-.66,5.54-1.7,1.5-4.31,1.44-6.24,3.18-2.11,1.89-1.94,5.53-1.78,6.97"/>
      <path class="cls-1" d="M9.12,37.57c.38-2.14,1-4.68,2.61-6.15,1.48-1.35,2.73-1,4.04-2.16,1.33-1.19,1.54-2.2.5-3.87-.83-1.32-1.47-3.24-1.47-4.89,0-2.75,1.89-4.99,4.42-4.99.66,0,1.27.15,1.82.42"/>
      <path class="cls-1" d="M42.27,37.57c-.38-2.14-1-4.68-2.61-6.15-1.48-1.35-2.73-1-4.04-2.16-1.33-1.19-1.54-2.2-.5-3.87.83-1.32,1.47-3.24,1.47-4.89,0-2.75-1.89-4.99-4.42-4.99-.66,0-1.27.15-1.82.42"/>
    </g>
  </g>
</svg>