<?xml version="1.0" encoding="UTF-8"?>
<svg id="Warstwa_2" xmlns="http://www.w3.org/2000/svg" viewBox="0 0 49.72 49.54">
  <defs>
    <style>
      .cls-1 {
        fill: none;
        stroke: #004979;
        stroke-linecap: round;
        stroke-linejoin: round;
        stroke-width: 1.98px;
      }
    </style>
  </defs>
  <g id="Warstwa_1-2" data-name="Warstwa_1">
    <g>
      <polygon class="cls-1" points="48.74 17.83 44.31 13.4 21.32 36.39 19.26 42.87 25.75 40.81 48.74 17.83"/>
      <line class="cls-1" x1="40.71" y1="17.05" x2="45.14" y2="21.48"/>
      <path class="cls-1" d="M36.06,31.13v15.73c0,.91-.79,1.69-1.69,1.69H2.68c-.91,0-1.69-.76-1.69-1.69V2.68c0-.93.76-1.69,1.69-1.69h22.34M36.06,12.03v9.19"/>
      <path class="cls-1" d="M36.06,12.03h-9.35c-.93,0-1.69-.76-1.69-1.69V.99l11.04,11.04Z"/>
      <line class="cls-1" x1="7.62" y1="10.06" x2="18.52" y2="10.06"/>
      <line class="cls-1" x1="7.62" y1="18.92" x2="29.43" y2="18.92"/>
      <line class="cls-1" x1="7.62" y1="25.17" x2="26.83" y2="25.17"/>
      <line class="cls-1" x1="7.62" y1="31.42" x2="21.07" y2="31.42"/>
      <line class="cls-1" x1="7.62" y1="37.48" x2="16.11" y2="37.48"/>
    </g>
  </g>
</svg>