<?xml version="1.0" encoding="UTF-8"?>
<svg id="Warstwa_2" data-name="Warstwa 2" xmlns="http://www.w3.org/2000/svg" viewBox="0 0 183.91 148.69">
  <defs>
    <style>
      .cls-1 {
        fill: #23527e;
        stroke-width: 0px;
      }
    </style>
  </defs>
  <g id="Warstwa_1-2" data-name="Warstwa 1">
    <g>
      <g>
        <path class="cls-1" d="M135.38,7.99c-5.76-2.23-11.73-4.02-17.76-5.33-8.18-1.77-16.6-2.67-25.02-2.67h-1.3c-8.4,0-16.82.9-25,2.67-6.03,1.3-12,3.09-17.76,5.33l-8.39,3.25v48.94c0,8.56,2.45,16.89,7.1,24.08,5.22,8.09,11.52,15.37,18.71,21.64,6.06,5.28,12.77,9.85,19.92,13.58l6.07,3.16,6.07-3.16c7.16-3.73,13.86-8.3,19.92-13.58,7.2-6.28,13.49-13.56,18.72-21.64,4.64-7.2,7.1-15.52,7.1-24.08V11.24l-8.38-3.25ZM135.3,60.18c0,6.93-1.99,13.67-5.75,19.48-4.79,7.42-10.57,14.11-17.17,19.86-5.55,4.84-11.7,9.03-18.27,12.46l-2.16,1.13-2.15-1.13c-6.57-3.43-12.72-7.62-18.28-12.46-6.59-5.75-12.36-12.43-17.16-19.86-3.76-5.81-5.75-12.55-5.75-19.48V17.04l2.98-1.16c5.35-2.07,10.9-3.74,16.49-4.94,7.6-1.65,15.41-2.48,23.22-2.48h1.32c7.8,0,15.62.83,23.21,2.48,5.59,1.2,11.14,2.87,16.49,4.94l2.98,1.16v43.14Z"/>
        <path class="cls-1" d="M80.97,84.75v16.31c-2.09-1.51-4.23-3.19-6.38-5.07-7.23-6.3-12.5-12.97-16.31-18.87-3.26-5.05-5-10.94-5-16.95v-21.22l12.63,5.1v16.12c0,3.59,1.03,7.09,2.98,10.1,3.45,5.33,7.5,10.19,12.09,14.47Z"/>
        <path class="cls-1" d="M130.63,20.23v26.29l-12.63-5.1v-12.12c-1.93-.55-3.87-1.04-5.82-1.46-3.05-.66-6.13-1.16-9.24-1.51-1.55-.17-3.11-.31-4.67-.4v78.29c-2.21,1.39-4.34,2.59-6.31,3.62-1.98-1.03-4.1-2.23-6.31-3.62V13.28c1.99-.11,3.88-.15,5.65-.15.22,0,.44,0,.66,0,.22,0,.44,0,.66,0,1.77,0,3.66.04,5.65.15,1.5.08,3.06.2,4.67.35,3.71.36,7.7.96,11.91,1.86,6.02,1.3,11.3,3,15.78,4.74Z"/>
        <path class="cls-1" d="M80.73,26.36c-2.98.34-5.94.83-8.86,1.45l9.11,3.68v13.62l-15.06-6.09-12.63-5.1v-13.69c2.03-.79,4.23-1.57,6.58-2.3,2.84-.89,5.91-1.72,9.2-2.43,4.2-.91,8.19-1.5,11.91-1.86v12.7c-.08,0-.16.02-.25.03Z"/>
        <path class="cls-1" d="M130.63,51.56v8.62c0,1.63-.13,3.25-.38,4.84,0,0,0,0,0,0-.24,1.56-.61,3.1-1.08,4.6-.83,2.64-2.02,5.17-3.54,7.51-3.81,5.9-9.08,12.57-16.31,18.87-2.15,1.87-4.29,3.56-6.38,5.07v-16.31c4.58-4.28,8.64-9.14,12.09-14.47,1.08-1.68,1.88-3.5,2.38-5.41.4-1.52.6-3.09.6-4.69v-.11l-15.06-6.09v-13.62l15.06,6.09,12.63,5.1Z"/>
      </g>
      <g>
        <path class="cls-1" d="M11.57,131.53v3.17H3.9c-.49,0-.73.24-.73.73v1.88c0,.49.24.73.73.73h4.75c2.62,0,3.93,1.31,3.93,3.93v2.84c0,2.59-1.31,3.88-3.93,3.88H.61v-3.17h8.04c.5,0,.75-.24.75-.7v-2.84c0-.5-.25-.75-.75-.75H3.9c-2.6,0-3.9-1.3-3.9-3.9v-1.88c0-2.6,1.3-3.9,3.9-3.9h7.66Z"/>
        <path class="cls-1" d="M20.74,141.8h2.8l-1.93-5.01-4.66,11.9h-3.46l6.84-17.16h2.56l6.86,17.16h-3.48l-1.48-3.71h-5.31l1.25-3.17Z"/>
        <path class="cls-1" d="M34.65,141.66v7.03h-3.17v-17.16h10.63v3.17h-7.45v3.79h7.26v3.17h-7.26Z"/>
        <path class="cls-1" d="M44.22,131.53h10.51v3.17h-7.34v3.34h7.15v3.17h-7.15v4.3h7.45v3.17h-10.63v-17.16Z"/>
        <path class="cls-1" d="M56.19,131.53h12.37v3.17h-4.54v13.99h-3.17v-13.99h-4.65v-3.17Z"/>
        <path class="cls-1" d="M74.76,140.7l-6.02-9.17h3.62l3.99,6.16,4.01-6.16h3.6l-6.02,9.17v7.99h-3.17v-7.99Z"/>
        <path class="cls-1" d="M91.1,131.53h8.3c2.62,0,3.93,1.3,3.93,3.9v2.28c0,2.63-1.31,3.95-3.93,3.95h-4.04v-3.17h4.04c.5,0,.75-.26.75-.78v-2.28c0-.49-.25-.73-.75-.73h-5.13v13.99h-3.17v-17.16Z"/>
        <path class="cls-1" d="M108.97,148.69h-3.17v-17.16h7.66c2.62,0,3.93,1.3,3.93,3.9v1.88c0,2.6-1.25,3.9-3.75,3.9l4.83,7.48h-3.86l-4.55-7.41v-3.24h3.39c.51,0,.76-.24.76-.73v-1.88c0-.49-.26-.73-.78-.73h-4.47v13.99Z"/>
        <path class="cls-1" d="M130.05,131.53c2.62,0,3.93,1.3,3.93,3.9v9.38c0,2.59-1.31,3.88-3.93,3.88h-5.6c-2.62,0-3.93-1.31-3.93-3.93v-9.33c0-2.6,1.31-3.9,3.93-3.9h5.6ZM124.46,134.7c-.5,0-.75.24-.75.73v9.33c0,.5.25.75.75.75h5.6c.5,0,.75-.24.75-.7v-9.38c0-.49-.25-.73-.75-.73h-5.6Z"/>
        <path class="cls-1" d="M135.34,148.69v-3.17h3.93c.5,0,.75-.24.75-.7v-13.28h3.17v13.28c0,2.59-1.31,3.88-3.93,3.88h-3.93Z"/>
        <path class="cls-1" d="M146.18,131.53h10.51v3.17h-7.34v3.34h7.15v3.17h-7.15v4.3h7.45v3.17h-10.63v-17.16Z"/>
        <path class="cls-1" d="M170.18,145.52v3.17h-7.01c-2.62,0-3.93-1.31-3.93-3.93v-9.33c0-2.6,1.31-3.9,3.93-3.9h7.01v3.17h-7.01c-.5,0-.75.24-.75.73v9.33c0,.5.25.75.75.75h7.01Z"/>
        <path class="cls-1" d="M171.55,131.53h12.37v3.17h-4.54v13.99h-3.17v-13.99h-4.65v-3.17Z"/>
      </g>
    </g>
  </g>
</svg>